<svg height="512" viewBox="0 0 512 512" width="512" xmlns="http://www.w3.org/2000/svg" fill="#68c7b8"><path d="m72 240a8 8 0 0 0 0-16h-32a8 8 0 0 0 -8 8v24a8 8 0 0 0 8 8h24v8h-24a8 8 0 0 0 0 16h32a8 8 0 0 0 8-8v-24a8 8 0 0 0 -8-8h-24v-8z"/><path d="m240 240a8 8 0 0 0 0-16h-32a8 8 0 0 0 -8 8v24a8 8 0 0 0 8 8h24v8h-24a8 8 0 0 0 0 16h32a8 8 0 0 0 8-8v-24a8 8 0 0 0 -8-8h-24v-8z"/><path d="m128 224a8 8 0 0 0 -8 8v40h-16v-40a8 8 0 0 0 -16 0v48a8 8 0 0 0 8 8h32a8 8 0 0 0 8-8v-48a8 8 0 0 0 -8-8z"/><path d="m288 240a8 8 0 0 0 0-16h-24a8 8 0 0 0 -8 8v48a8 8 0 0 0 8 8h24a8 8 0 0 0 0-16h-16v-32z"/><path d="m472 240a8 8 0 0 0 0-16h-32a8 8 0 0 0 -8 8v48a8 8 0 0 0 8 8h32a8 8 0 0 0 0-16h-24v-8h8a8 8 0 0 0 0-16h-8v-8z"/><path d="m360 224a8 8 0 0 0 -8 8v48a8 8 0 0 0 16 0v-48a8 8 0 0 0 -8-8z"/><path d="m464 152h-416a40.04 40.04 0 0 0 -40 40v128a40.04 40.04 0 0 0 40 40h416a40.04 40.04 0 0 0 40-40v-128a40.04 40.04 0 0 0 -40-40zm24 168a24.032 24.032 0 0 1 -24 24h-416a24.032 24.032 0 0 1 -24-24v-128a24.032 24.032 0 0 1 24-24h416a24.032 24.032 0 0 1 24 24z"/><path d="m416 248v-16a8 8 0 0 0 -8-8h-24a8 8 0 0 0 -8 8v48a8 8 0 0 0 8 8h32a8 8 0 0 0 8-8v-24a8 8 0 0 0 -8-8zm-24-8h8v8h-8zm16 32h-16v-8h16z"/><path d="m344 256v-24a8 8 0 0 0 -8-8h-24a8 8 0 0 0 -8 8v48a8 8 0 0 0 16 0v-4.69l10.34 10.35a8 8 0 0 0 11.32-11.32l-10.35-10.34h4.69a8 8 0 0 0 8-8zm-16-8h-8v-8h8z"/><path d="m184 248v-16a8 8 0 0 0 -8-8h-24a8 8 0 0 0 -8 8v48a8 8 0 0 0 8 8h32a8 8 0 0 0 8-8v-24a8 8 0 0 0 -8-8zm-24-8h8v8h-8zm16 32h-16v-8h16z"/><path d="m48 192h56a8 8 0 0 0 0-16h-56a8 8 0 0 0 0 16z"/><path d="m136 176h-8a8 8 0 0 0 0 16h8a8 8 0 0 0 0-16z"/></svg>